<svg xmlns="http://www.w3.org/2000/svg" viewBox="0 0 128 128"><path fill="currentColor" fill-rule="evenodd" d="M120.6,65.4Q120.6,66.8 120.6,68.2Q120.7,69.6 120.5,71.0Q120.4,72.4 120.0,73.7Q119.6,75.1 118.9,76.3Q118.3,77.6 117.4,78.8Q116.5,79.9 115.6,81.0Q114.6,82.1 113.6,83.1Q112.7,84.2 111.6,85.1Q110.5,86.0 109.1,86.7Q107.7,87.4 105.8,87.7Q104.0,87.9 101.6,87.7Q99.2,87.5 96.6,86.9Q93.9,86.2 91.4,85.3Q88.9,84.5 87.1,83.8Q85.2,83.2 84.2,83.2Q83.2,83.2 83.2,84.2Q83.2,85.2 83.8,87.1Q84.5,88.9 85.3,91.4Q86.2,93.9 86.9,96.6Q87.5,99.2 87.7,101.6Q87.9,104.0 87.7,105.8Q87.4,107.7 86.7,109.1Q86.0,110.5 85.1,111.6Q84.2,112.7 83.1,113.6Q82.1,114.6 81.0,115.6Q79.9,116.5 78.8,117.4Q77.6,118.3 76.3,118.9Q75.1,119.6 73.7,120.0Q72.4,120.4 71.0,120.5Q69.6,120.7 68.2,120.6Q66.8,120.6 65.4,120.6Q64.0,120.6 62.6,120.6Q61.2,120.6 59.8,120.6Q58.4,120.7 57.0,120.5Q55.6,120.4 54.3,120.0Q52.9,119.6 51.7,118.9Q50.4,118.3 49.2,117.4Q48.1,116.5 47.0,115.6Q45.9,114.6 44.9,113.6Q43.8,112.7 42.9,111.6Q42.0,110.5 41.3,109.1Q40.6,107.7 40.3,105.8Q40.1,104.0 40.3,101.6Q40.5,99.2 41.1,96.6Q41.8,93.9 42.7,91.4Q43.5,88.9 44.2,87.1Q44.8,85.2 44.8,84.2Q44.8,83.2 43.8,83.2Q42.8,83.2 40.9,83.8Q39.1,84.5 36.6,85.3Q34.1,86.2 31.4,86.9Q28.8,87.5 26.4,87.7Q24.0,87.9 22.2,87.7Q20.3,87.4 18.9,86.7Q17.5,86.0 16.4,85.1Q15.3,84.2 14.4,83.1Q13.4,82.1 12.4,81.0Q11.5,79.9 10.6,78.8Q9.7,77.6 9.1,76.3Q8.4,75.1 8.0,73.7Q7.6,72.4 7.5,71.0Q7.3,69.6 7.4,68.2Q7.4,66.8 7.4,65.4Q7.4,64.0 7.4,62.6Q7.4,61.2 7.4,59.8Q7.3,58.4 7.5,57.0Q7.6,55.6 8.0,54.3Q8.4,52.9 9.1,51.7Q9.7,50.4 10.6,49.2Q11.5,48.1 12.4,47.0Q13.4,45.9 14.4,44.9Q15.3,43.8 16.4,42.9Q17.5,42.0 18.9,41.3Q20.3,40.6 22.2,40.3Q24.0,40.1 26.4,40.3Q28.8,40.5 31.4,41.1Q34.1,41.8 36.6,42.7Q39.1,43.5 40.9,44.2Q42.8,44.8 43.8,44.8Q44.8,44.8 44.8,43.8Q44.8,42.8 44.2,40.9Q43.5,39.1 42.7,36.6Q41.8,34.1 41.1,31.4Q40.5,28.8 40.3,26.4Q40.1,24.0 40.3,22.2Q40.6,20.3 41.3,18.9Q42.0,17.5 42.9,16.4Q43.8,15.3 44.9,14.4Q45.9,13.4 47.0,12.4Q48.1,11.5 49.2,10.6Q50.4,9.7 51.7,9.1Q52.9,8.4 54.3,8.0Q55.6,7.6 57.0,7.5Q58.4,7.3 59.8,7.4Q61.2,7.4 62.6,7.4Q64.0,7.4 65.4,7.4Q66.8,7.4 68.2,7.4Q69.6,7.3 71.0,7.5Q72.4,7.6 73.7,8.0Q75.1,8.4 76.3,9.1Q77.6,9.7 78.8,10.6Q79.9,11.5 81.0,12.4Q82.1,13.4 83.1,14.4Q84.2,15.3 85.1,16.4Q86.0,17.5 86.7,18.9Q87.4,20.3 87.7,22.2Q87.9,24.0 87.7,26.4Q87.5,28.8 86.9,31.4Q86.2,34.1 85.3,36.6Q84.5,39.1 83.8,40.9Q83.2,42.8 83.2,43.8Q83.2,44.8 84.2,44.8Q85.2,44.8 87.1,44.2Q88.9,43.5 91.4,42.7Q93.9,41.8 96.6,41.1Q99.2,40.5 101.6,40.3Q104.0,40.1 105.8,40.3Q107.7,40.6 109.1,41.3Q110.5,42.0 111.6,42.9Q112.7,43.8 113.6,44.9Q114.6,45.9 115.6,47.0Q116.5,48.1 117.4,49.2Q118.3,50.4 118.9,51.7Q119.6,52.9 120.0,54.3Q120.4,55.6 120.5,57.0Q120.7,58.4 120.6,59.8Q120.6,61.2 120.6,62.6ZM107.9,64.4Q107.8,64.8 107.4,65.2Q107.1,65.5 106.5,65.9Q106.0,66.3 105.2,66.6Q104.5,66.9 103.6,67.2Q102.6,67.4 101.6,67.7Q100.5,67.9 99.3,68.1Q98.1,68.2 96.9,68.3Q95.6,68.4 94.3,68.5Q93.0,68.5 91.7,68.5Q90.4,68.4 89.1,68.3Q87.9,68.2 86.7,68.1Q85.5,67.9 84.4,67.7Q83.4,67.4 82.4,67.2Q81.5,66.9 80.8,66.6Q80.0,66.3 79.5,65.9Q78.9,65.5 78.6,65.2Q78.2,64.8 78.1,64.4Q78.0,64.0 78.1,63.6Q78.2,63.2 78.6,62.8Q78.9,62.5 79.5,62.1Q80.0,61.8 80.8,61.4Q81.5,61.1 82.4,60.8Q83.4,60.6 84.4,60.3Q85.5,60.1 86.7,59.9Q87.9,59.8 89.1,59.7Q90.4,59.6 91.7,59.5Q93.0,59.5 94.3,59.5Q95.6,59.6 96.9,59.7Q98.1,59.8 99.3,59.9Q100.5,60.1 101.6,60.3Q102.6,60.6 103.6,60.8Q104.5,61.1 105.2,61.4Q106.0,61.8 106.5,62.1Q107.1,62.5 107.4,62.8Q107.8,63.2 107.9,63.6ZM63.6,107.9Q63.2,107.8 62.8,107.4Q62.5,107.1 62.1,106.5Q61.8,106.0 61.4,105.2Q61.1,104.5 60.8,103.6Q60.6,102.6 60.3,101.6Q60.1,100.5 59.9,99.3Q59.8,98.1 59.7,96.9Q59.6,95.6 59.5,94.3Q59.5,93.0 59.5,91.7Q59.6,90.4 59.7,89.1Q59.8,87.9 59.9,86.7Q60.1,85.5 60.3,84.4Q60.6,83.4 60.8,82.4Q61.1,81.5 61.4,80.8Q61.8,80.0 62.1,79.5Q62.5,78.9 62.8,78.6Q63.2,78.2 63.6,78.1Q64.0,78.0 64.4,78.1Q64.8,78.2 65.2,78.6Q65.5,78.9 65.9,79.5Q66.3,80.0 66.6,80.8Q66.9,81.5 67.2,82.4Q67.4,83.4 67.7,84.4Q67.9,85.5 68.1,86.7Q68.2,87.9 68.3,89.1Q68.4,90.4 68.5,91.7Q68.5,93.0 68.5,94.3Q68.4,95.6 68.3,96.9Q68.2,98.1 68.1,99.3Q67.9,100.5 67.7,101.6Q67.4,102.6 67.2,103.6Q66.9,104.5 66.6,105.2Q66.3,106.0 65.9,106.5Q65.5,107.1 65.2,107.4Q64.8,107.8 64.4,107.9ZM20.1,63.6Q20.2,63.2 20.6,62.8Q20.9,62.5 21.5,62.1Q22.0,61.8 22.8,61.4Q23.5,61.1 24.4,60.8Q25.4,60.6 26.4,60.3Q27.5,60.1 28.7,59.9Q29.9,59.8 31.1,59.7Q32.4,59.6 33.7,59.5Q35.0,59.5 36.3,59.5Q37.6,59.6 38.9,59.7Q40.1,59.8 41.3,59.9Q42.5,60.1 43.6,60.3Q44.6,60.6 45.6,60.8Q46.5,61.1 47.2,61.4Q48.0,61.8 48.5,62.1Q49.1,62.5 49.4,62.8Q49.8,63.2 49.9,63.6Q50.0,64.0 49.9,64.4Q49.8,64.8 49.4,65.2Q49.1,65.5 48.5,65.9Q48.0,66.3 47.2,66.6Q46.5,66.9 45.6,67.2Q44.6,67.4 43.6,67.7Q42.5,67.9 41.3,68.1Q40.1,68.2 38.9,68.3Q37.6,68.4 36.3,68.5Q35.0,68.5 33.7,68.5Q32.4,68.4 31.1,68.3Q29.9,68.2 28.7,68.1Q27.5,67.9 26.4,67.7Q25.4,67.4 24.4,67.2Q23.5,66.9 22.8,66.6Q22.0,66.3 21.5,65.9Q20.9,65.5 20.6,65.2Q20.2,64.8 20.1,64.4ZM64.4,20.1Q64.8,20.2 65.2,20.6Q65.5,20.9 65.9,21.5Q66.3,22.0 66.6,22.8Q66.9,23.5 67.2,24.4Q67.4,25.4 67.7,26.4Q67.9,27.5 68.1,28.7Q68.2,29.9 68.3,31.1Q68.4,32.4 68.5,33.7Q68.5,35.0 68.5,36.3Q68.4,37.6 68.3,38.9Q68.2,40.1 68.1,41.3Q67.9,42.5 67.7,43.6Q67.4,44.6 67.2,45.6Q66.9,46.5 66.6,47.2Q66.3,48.0 65.9,48.5Q65.5,49.1 65.2,49.4Q64.8,49.8 64.4,49.9Q64.0,50.0 63.6,49.9Q63.2,49.8 62.8,49.4Q62.5,49.1 62.1,48.5Q61.8,48.0 61.4,47.2Q61.1,46.5 60.8,45.6Q60.6,44.6 60.3,43.6Q60.1,42.5 59.9,41.3Q59.8,40.1 59.7,38.9Q59.6,37.6 59.5,36.3Q59.5,35.0 59.5,33.7Q59.6,32.4 59.7,31.1Q59.8,29.9 59.9,28.7Q60.1,27.5 60.3,26.4Q60.6,25.4 60.8,24.4Q61.1,23.5 61.4,22.8Q61.7,22.0 62.1,21.5Q62.5,20.9 62.8,20.6Q63.2,20.2 63.6,20.1Z"></path></svg>